Coordinates
version=1
nRows=4
nColumns=63
inDegrees=yes

Units are S.I. units (second, meters, Newtons, ...)
If the header above contains a line with 'inDegrees', this indicates whether rotational values are in degrees (yes) or radians (no).

endheader
time	pelvis_tilt	pelvis_list	pelvis_rotation	pelvis_tx	pelvis_ty	pelvis_tz	hip_flexion_r	hip_adduction_r	hip_rotation_r	knee_angle_r	knee_angle_r_beta	ankle_angle_r	subtalar_angle_r	mtp_angle_r	hip_flexion_l	hip_adduction_l	hip_rotation_l	knee_angle_l	knee_angle_l_beta	ankle_angle_l	subtalar_angle_l	mtp_angle_l	L5_S1_Flex_Ext	L5_S1_Lat_Bending	L5_S1_axial_rotation	L4_L5_Flex_Ext	L4_L5_Lat_Bending	L4_L5_axial_rotation	L3_L4_Flex_Ext	L3_L4_Lat_Bending	L3_L4_axial_rotation	L2_L3_Flex_Ext	L2_L3_Lat_Bending	L2_L3_axial_rotation	L1_L2_Flex_Ext	L1_L2_Lat_Bending	L1_L2_axial_rotation	L1_T12_Flex_Ext	L1_T12_Lat_Bending	L1_T12_axial_rotation	Abs_r3	Abs_r2	Abs_r1	Abs_t1	Abs_t2	neck_flexion	neck_bending	neck_rotation	arm_flex_r	arm_add_r	arm_rot_r	elbow_flex_r	pro_sup_r	wrist_flex_r	wrist_dev_r	arm_flex_l	arm_add_l	arm_rot_l	elbow_flex_l	pro_sup_l	wrist_flex_l	wrist_dev_l
      1.05000000	     -1.11305480	     -3.55804572	     95.15702179	      0.02965662	      0.85650450	      0.71086528	      8.75296592	     -3.15972831	      1.55297414	     18.47642715	      0.32247449	     38.89262887	     -0.44802605	      0.00000000	      3.57517514	      3.34562485	     -4.38517440	      7.23736951	      0.12631593	     35.48472355	      6.23076546	      0.00000000	     -0.05384695	     -0.66532813	      1.18399607	     -0.09999918	     -0.88488642	      1.25799583	     -0.08846516	     -1.61767882	      1.25799583	     -0.06154168	     -1.61767882	      1.03599656	     -0.05000228	     -1.35673713	      0.96199681	     -0.03076815	     -1.03059328	      0.88799706	     -0.38462341	     -7.52632490	      6.58503096	      0.00000000	      0.00000000	     16.07195970	      0.63047474	    -20.68531198	     44.61249299	    -24.09227459	    -11.09469369	     94.13848257	     87.45550495	    -10.66801427	      9.82806993	      9.71788306	    -15.83283882	     40.05138764	     36.74168526	     87.45345903	    -12.50910620	     -0.67299039
      1.06666667	     -0.96097745	     -3.47394854	     95.33724950	      0.02955671	      0.85675073	      0.71127303	      8.72505923	     -2.95546199	      1.55807751	     18.53743784	      0.32353933	     38.58993009	     -1.11562880	      0.00000000	      3.62675388	      3.16634502	     -4.10198344	      7.52570709	      0.13134837	     35.39214426	      6.12903653	      0.00000000	     -0.06235791	     -0.66111347	      1.10418063	     -0.11580487	     -0.87928091	      1.17319191	     -0.10244781	     -1.60743129	      1.17319191	     -0.07126885	     -1.60743129	      0.96615805	     -0.05790555	     -1.34814258	      0.89714676	     -0.03563131	     -1.02406476	      0.82813547	     -0.44541630	     -7.47864778	      6.14112138	      0.00000000	      0.00000000	     15.58728278	      0.54231288	    -20.34666789	     46.22851587	    -25.89688650	     -7.42331618	     94.35416279	     86.44026213	     -9.50999623	     10.56872570	      9.82157663	    -16.03312247	     41.50050550	     35.47640858	     87.20555585	    -12.90765260	     -1.52950701
      1.08333333	     -0.90630025	     -3.42230909	     95.28334141	      0.02994837	      0.85680327	      0.71181899	      8.89141623	     -2.83393679	      1.65893784	     18.82868964	      0.32862263	     38.47546407	     -1.62845541	      0.00000000	      3.69577058	      3.07280790	     -4.13109961	      7.74484922	      0.13517312	     35.35900862	      6.05296579	      0.00000000	     -0.06934834	     -0.67435504	      1.12683653	     -0.12878680	     -0.89689221	      1.19726382	     -0.11393239	     -1.63962685	      1.19726382	     -0.07925822	     -1.63962685	      0.98598197	     -0.06439687	     -1.37514480	      0.91555468	     -0.03962564	     -1.04457596	      0.84512740	     -0.49534825	     -7.62843911	      6.26712675	      0.00000000	      0.00000000	     15.18859505	      0.12274439	    -20.64981023	     47.95531501	    -28.01596712	     -3.70484977	     93.96447090	     84.50065211	     -8.33139471	     10.40214960	     10.23237841	    -16.20572213	     43.25656462	     34.26264524	     87.10992736	    -12.68747564	     -1.68507978
      1.10000000	     -0.90420430	     -3.36945837	     95.11055637	      0.03078180	      0.85706030	      0.71193539	      8.86660248	     -2.63046108	      2.46487104	     18.71336956	      0.32660991	     38.11455629	     -2.81572601	      0.00000000	      3.67021413	      3.01078146	     -4.32325624	      7.80409870	      0.13620722	     35.31721535	      6.01147375	      0.00000000	     -0.06358973	     -0.70908091	      1.24256333	     -0.11809248	     -0.94307761	      1.32022354	     -0.10447156	     -1.72405932	      1.32022354	     -0.07267670	     -1.72405932	      1.08724291	     -0.05904942	     -1.44595779	      1.00958271	     -0.03633517	     -1.09836633	      0.93192250	     -0.45421505	     -8.02126506	      6.91076447	      0.00000000	      0.00000000	     14.74507007	      0.27152494	    -21.39539475	     49.20297694	    -30.59212056	      0.50142051	     93.01405649	     75.90694806	     -7.91269629	      7.95062185	     11.28854585	    -16.40409836	     47.32150331	     32.52396286	     86.20829268	    -13.45629742	     -2.38009536
